<svg xmlns="http://www.w3.org/2000/svg" xml:space="preserve" width="218.334" height="57.667" viewBox="184.5 145.833 218.334 57.667"><text font-family="'Helvetica'" font-size="36" transform="translate(320.26 187.023)">P</text><path d="m358.726 165.885 3.625-4.727 16.175 4.727zM358.145 166.731l-4 5.416 24.381-5.85zM359.815 171.64l13.922-3.415-14.196 7.131z"/><path fill="none" d="m209.926 176.886 1.647-.061a14.664 14.664 0 0 1 3.224.131c1.127.192 2.284.468 3.248.809.459.134.896.316 1.18.413l.459.167 5.347-14.013-.622-.228c-.406-.142-.938-.358-1.679-.587-1.404-.487-3.495-1.039-5.666-1.386-2.171-.342-4.515-.392-5.94-.296a8149.3 8149.3 0 0 1-2.527.113l1.329 14.938z"/><path d="m219.213 169.723-.408 1.443.36.1.79.253c.576.174 1.146.392 1.146.392l.506-1.412s-.585-.223-1.189-.406l-.824-.264-.381-.106zM214.756 168.861l-.146 1.493 1.179.148c.588.084 1.172.216 1.172.216l.303-1.468s-.619-.14-1.248-.23l-1.26-.159zM210.241 168.843l.09 1.497 2.411-.092.016-1.499z"/><path fill="none" d="m219.684 178.344 1.803.716c1.094.441 2.751 1.138 4.593 1.792 1.825.671 3.947 1.234 5.586 1.523 1.646.307 2.794.365 2.794.365l1.232-14.948s-.525-.017-1.348-.174a19.816 19.816 0 0 1-3.267-.907c-1.31-.463-2.737-1.056-3.967-1.555l-2.081-.825-5.345 14.013z"/><path d="m231.78 174.193-.353 1.458.393.092c.236.052.546.141.868.184l1.278.209.193-1.487-1.195-.196c-.301-.039-.594-.124-.815-.172l-.369-.088zM227.608 172.859l-.534 1.401s.581.235 1.188.437c.599.211 1.205.408 1.205.408l.453-1.43s-.582-.189-1.16-.393c-.58-.192-1.152-.423-1.152-.423zM223.494 171.215l-.551 1.395 2.294.925.564-1.389z"/><path fill="none" d="M234.459 182.74s1.133.128 2.844.093c.869.018 1.793-.102 2.83-.174 1.049-.153 2.174-.284 3.299-.579 2.257-.512 4.395-1.37 5.754-2.021.723-.326 1.25-.6 1.621-.79l.586-.301-6.965-13.283-.436.222c-.279.146-.68.353-1.102.538-.899.432-1.889.81-2.896 1.035-.491.146-1.036.183-1.532.274-.526.017-1.058.111-1.443.083-.799.02-1.329-.045-1.329-.045l-1.231 14.948z"/><path d="m244.574 173.311.561 1.391s.607-.228 1.181-.508c.585-.263 1.149-.549 1.149-.549l-.67-1.342s-.547.278-1.103.527c-.549.268-1.118.481-1.118.481zM240.414 174.503l.254 1.479s.644-.091 1.273-.259l.87-.21.387-.124-.435-1.436-.358.116-.808.194c-.583.157-1.183.24-1.183.24zM236.104 174.803l-.051 1.499 1.299.002c.326.011.646-.03.889-.044l.402-.031-.121-1.495-.379.029c-.227.013-.528.054-.832.042l-1.207-.002z"/><path fill="none" d="m251.393 178.968 1.964-1.058c1.115-.609 2.533-1.405 3.888-2.097a70.928 70.928 0 0 1 3.759-1.817c.512-.241.949-.42 1.256-.547l.479-.2-5.772-13.843-.58.243c-.371.153-.898.372-1.521.663a86.948 86.948 0 0 0-4.517 2.183c-1.62.831-3.118 1.675-4.203 2.266l-1.715.925 6.962 13.282z"/><path d="m256.451 167.247.64 1.357 1.114-.508c.556-.26 1.12-.497 1.12-.498l-.595-1.377s-.576.242-1.142.507l-1.137.519zM252.45 169.257l.706 1.323 1.089-.568c.543-.29 1.094-.557 1.094-.558l-.67-1.341s-.562.273-1.112.567l-1.107.577zM248.553 171.382l.711 1.32 2.184-1.195-.721-1.314z"/><path fill="none" d="M262.738 173.25s2.778-1.183 5.728-2.125l.365-.125h.004l.164-.039.879-.183c.594-.111 1.16-.192 1.642-.253.965-.118 1.584-.139 1.584-.139l-.818-14.976s-1.053.04-2.577.226c-.763.095-1.645.223-2.592.4a36.15 36.15 0 0 0-1.484.309l-.438.104-.601.156-.82.275c-3.424 1.094-6.805 2.526-6.805 2.526l5.769 13.844z"/><path d="m269.159 162.751.242 1.48s.595-.099 1.193-.171c.598-.075 1.197-.127 1.197-.127l-.131-1.495s-.629.055-1.254.133c-.625.077-1.247.18-1.247.18zM264.775 163.898l.487 1.418 1.164-.396c.578-.217 1.076-.316 1.104-.324l-.337-1.461-.392.093c-.246.052-.554.172-.846.268l-1.18.402zM260.589 165.444l.561 1.392s.568-.227 1.145-.441l1.146-.435-.52-1.408-1.168.442c-.584.22-1.164.45-1.164.45z"/><path fill="none" d="M273.103 170.385s.636-.048 1.514-.027c.875.015 1.989.12 2.799.351.84.219 1.329.495 1.532.663a.505.505 0 0 0 .142.109c.025.041.051.07.076.091.059.035.07.075.07.075L290.718 162s-.227-.307-.698-.777l-.851-.847a40.16 40.16 0 0 0-1.185-.973c-.44-.34-.937-.651-1.463-.994a24.752 24.752 0 0 0-1.673-.901c-1.159-.53-2.412-1.004-3.608-1.3-2.422-.646-4.667-.805-6.293-.842-1.63-.036-2.663.045-2.663.045l.819 14.974z"/><path d="m282.568 164.174-.733 1.308s.129.059.307.174l.643.426.594.484c.168.126.248.242.254.237l1.037-1.083s-.104-.129-.299-.28c-.189-.155-.445-.361-.699-.568l-.748-.496c-.208-.133-.356-.202-.356-.202zM278.218 162.665l-.271 1.476.357.073c.217.041.502.101.781.184a9.8 9.8 0 0 1 1.104.341l.508-1.412s-.604-.231-1.229-.38a9.756 9.756 0 0 0-.857-.202c-.235-.049-.393-.08-.393-.08zM273.695 162.331l.028 1.5s.599-.013 1.195.003c.594.023 1.187.065 1.187.065l.123-1.495s-.634-.046-1.269-.07c-.632-.018-1.264-.003-1.264-.003z"/><path fill="none" d="M279.234 171.647s.088.093.228.349c.135.249.354.794.436 1.71.089 1.041.006 1.712-.083 2.191-.103.462-.236.691-.224.702l13.816 5.837.346-.891c.237-.567.451-1.389.699-2.383.451-1.968.61-4.659.368-6.95-.207-2.42-.979-5.127-2.026-7.089-.513-.975-1.029-1.777-1.428-2.303l-.648-.823-11.484 9.65z"/><path d="m287.886 176.228-1.491-.164-.175 1.132c-.146.551-.289 1.102-.289 1.102l1.427.461.33-1.254c.114-.637.198-1.277.198-1.277zM287.712 171.639l-1.476.272.159 1.149.066 1.17 1.498-.043-.072-1.276-.175-1.272zM286.024 167.338l-1.248.833s.072.119.184.296c.113.174.26.411.369.672a7.37 7.37 0 0 1 .436 1.038l1.412-.503s-.198-.619-.504-1.2a5.166 5.166 0 0 0-.433-.787l-.216-.349z"/><path fill="none" d="M279.591 176.599c-.004-.003-.008.076-.078.171-.066.097-.11.267-.244.42a3.878 3.878 0 0 1-1.137 1.109c-.537.362-1.24.631-1.795.761a3.93 3.93 0 0 1-.685.121c-.167.024-.263.042-.263.036l1.227 14.948s.32-.027.878-.1c.56-.059 1.354-.183 2.296-.41 1.881-.438 4.357-1.342 6.605-2.839 2.264-1.462 4.208-3.541 5.351-5.305.607-.863.981-1.659 1.265-2.203.287-.544.396-.873.396-.873l-13.816-5.836z"/><path d="m279.562 186.479-.491-1.417s-.546.186-1.105.325l-.774.169c-.211.048-.356.056-.356.056l.229 1.482s.161-.01.397-.062l.865-.188a16.858 16.858 0 0 0 1.235-.365zM283.595 184.237l-.95-1.16-.279.221a4.77 4.77 0 0 1-.64.454 8.691 8.691 0 0 1-.984.581l.698 1.328s.579-.287 1.112-.656c.278-.167.541-.357.726-.515l.317-.253zM286.527 180.679l-1.323-.707-.162.314c-.102.186-.271.414-.425.651a4.232 4.232 0 0 1-.464.624l-.227.272 1.133.983.261-.312c.163-.182.362-.438.533-.715.177-.273.37-.536.487-.75l.187-.36z"/><path fill="none" d="M275.39 179.217c0-.019-.389.044-.953.002-.561-.041-1.273-.189-1.838-.452a3.614 3.614 0 0 1-1.248-.902c-.269-.298-.414-.554-.414-.554l-12.783 7.846s.677 1.214 2.085 2.781c1.385 1.578 3.635 3.365 6.125 4.471 2.479 1.145 5.093 1.642 7.028 1.772.97.056 1.777.069 2.339.029l.884-.045-1.225-14.948z"/><path d="m266.438 184.266.977-1.138s-.449-.349-.814-.784c-.405-.397-.721-.871-.721-.87l-1.207.893s.365.54.83.999c.422.497.935.9.935.9zM270.46 186.545l.482-1.42-.34-.11-.721-.31c-.27-.1-.508-.255-.697-.354l-.312-.171-.765 1.29.354.196c.215.114.491.288.795.403l.818.351.386.125zM274.995 187.267l-.013-1.5s-.144.006-.36-.007l-.792-.032-1.141-.146-.261 1.478 1.278.164.886.037c.243.013.403.006.403.006z"/><path fill="none" d="M270.938 177.312s-.16-.23-.351-.699a8.226 8.226 0 0 1-.457-2.202l-.011-.753c.001-.114-.017-.274-.003-.346.016-.068.025-.136.034-.203.028-.127-.011-.275.036-.377.039-.104.064-.205.078-.3.135-.357.209-.604.233-.602l-13.342-6.852s-.181.293-.412.872c-.22.577-.622 1.376-.884 2.404a42.823 42.823 0 0 0-.406 1.665c-.139.593-.168 1.213-.242 1.861l-.084.984c-.022.33-.004.578-.007.875.009.575.011 1.151.041 1.74.144 2.38.746 4.895 1.476 6.747.401.927.72 1.695 1.041 2.214l.475.818 12.785-7.846z"/><path d="m262.231 171.605 1.482.232c-.029-.006.116-.552.25-1.101.094-.562.389-1.059.364-1.066l-1.391-.562c.024.008-.302.584-.419 1.229-.157.631-.314 1.263-.286 1.268zM262.253 176.197l1.484-.208-.125-1.162-.023-1.177-1.5-.002.026 1.275.138 1.274zM263.571 180.591l1.342-.671-.461-1.046-.35-1.096-1.446.4.394 1.229.521 1.184z"/><path fill="none" d="M270.498 171.831s.044-.057.106-.164a2.07 2.07 0 0 0 .101-.201c.046-.079.14-.162.209-.261.255-.399.864-.966 1.669-1.535.771-.585 1.861-1.074 2.658-1.446l1.444-.55-4.837-14.197s-.987.351-2.461.938c-1.479.667-3.453 1.566-5.391 2.958-1.931 1.34-3.802 3.076-5 4.726-.303.403-.586.758-.812 1.109l-.559.941-.47.831 13.343 6.851z"/><path d="m270.828 161.42.66 1.347 1.084-.5a15.2 15.2 0 0 1 1.114-.44l-.532-1.403s-.597.208-1.175.466l-1.151.53zM266.97 163.85l.944 1.166s.431-.393.935-.703l.671-.453c.18-.128.311-.198.311-.198l-.776-1.284s-.14.075-.336.214c-.197.134-.461.312-.727.49-.544.337-1.022.768-1.022.768zM263.886 167.243l1.268.801c-.068-.04 1.366-1.833 1.417-1.793l-1.087-1.033c-.051-.05-1.669 1.974-1.598 2.025z"/><path fill="none" d="m276.685 167.673 1.547-.468c.958-.247 2.266-.557 3.64-.746 2.736-.421 5.601-.419 5.601-.419l-.094-14.998s-3.84-.013-7.721.583c-1.938.271-3.893.72-5.357 1.106a64.312 64.312 0 0 0-2.453.744l4.837 14.198z"/><path d="m283.919 158.148.114 1.496s.606-.042 1.214-.07a414.77 414.77 0 0 1 1.215-.056l-.039-1.5-1.252.058c-.627.028-1.252.072-1.252.072zM279.452 158.717l.266 1.477s.594-.118 1.196-.193l1.201-.172-.179-1.489-1.243.177c-.624.078-1.241.2-1.241.2zM275.079 159.767l.44 1.434.358-.111a9.62 9.62 0 0 1 .797-.225l1.172-.292-.336-1.462-1.223.304c-.307.069-.607.162-.834.234l-.374.118z"/><path fill="none" d="M287.472 166.041s.711-.031 1.779.026a25.98 25.98 0 0 1 1.82.103c.667.041 1.374.114 2.076.211 2.833.33 5.482 1.09 5.482 1.09l4.025-14.449-.652-.175c-.416-.108-1.01-.281-1.724-.425a53.134 53.134 0 0 0-5.242-.92 40.853 40.853 0 0 0-2.807-.286 38.604 38.604 0 0 0-2.454-.138c-1.438-.07-2.398-.035-2.398-.035l.095 14.998z"/><path d="m297.37 158.922-.287 1.472 1.187.257c.597.118 1.181.279 1.181.279l.369-1.454s-.605-.167-1.223-.289l-1.227-.265zM292.921 158.262l-.152 1.492a974.34 974.34 0 0 0 2.037.251l.375.062.228-1.483-.387-.063-.854-.105-1.247-.154zM288.446 158.004l-.021 1.5 1.217.042c.609.019 1.217.055 1.217.055l.094-1.497s-.625-.038-1.252-.057l-1.255-.043z"/><path fill="none" d="m298.632 167.47.457.121 1.168.376c.967.308 2.182.809 3.332 1.346 1.105.577 2.155 1.18 2.803 1.691.701.486 1.046.846 1.046.846l10.022-11.158-.594-.526c-.374-.355-.936-.75-1.605-1.256-1.34-1.021-3.187-2.106-5.055-3.056-1.869-.892-3.759-1.647-5.179-2.106l-1.718-.549-.652-.177-4.025 14.448z"/><path d="m309.978 163.729-.815 1.259s.521.298.983.67l.951.71.945-1.165-1.018-.761c-.497-.397-1.046-.713-1.046-.713zM305.987 161.587l-.609 1.371 1.096.498 1.059.564.719-1.316-1.115-.594-1.15-.523zM301.771 160.02l-.438 1.435 1.151.373c.29.087.575.189.784.275l.352.136.531-1.403-.367-.141a9.81 9.81 0 0 0-.816-.287c-.599-.196-1.197-.388-1.197-.388z"/><path fill="none" d="M307.435 171.849s.42.338.875.871c.062.064.129.131.195.201.043.056.053.092.086.138.045.091.149.159.188.26.038.101.094.194.162.286a1.1 1.1 0 0 0 .118.323c.143.447.164 1.031.113 1.515-.02.121-.022.232-.033.333-.026.103-.051.192-.069.266a28.28 28.28 0 0 1-.045.235l14.454 4.006.21-.885.224-1.021c.062-.403.118-.863.176-1.364.223-1.997.159-4.817-.717-7.571a43.708 43.708 0 0 0-.761-2.011 37.883 37.883 0 0 0-.978-1.844c-.334-.588-.737-1.094-1.095-1.595-.181-.243-.366-.497-.536-.703-.162-.179-.317-.352-.468-.517-1.196-1.359-2.077-2.08-2.077-2.081l-10.022 11.158z"/><path d="m317.229 174.845-1.5.017-.003.356c.002.213.006.498-.043.781l-.092.781c-.024.213-.068.351-.068.351l1.472.289s.048-.155.078-.396l.104-.884c.053-.32.051-.645.049-.888l.003-.407zM316.265 170.312l-1.368.616.396 1.053c.135.547.268 1.095.268 1.095l1.475-.278s-.139-.637-.311-1.264l-.46-1.222zM313.566 166.581l-1.06 1.062.797.861c.213.209.371.441.492.612l.207.285 1.229-.861-.239-.33c-.144-.199-.331-.467-.558-.691-.433-.47-.868-.938-.868-.938z"/><path fill="none" d="M309.026 176.277c.007.001-.027.085-.083.234s-.104.371-.242.617c-.22.503-.614 1.175-1.11 1.656a4.384 4.384 0 0 1-1.397.967c-.462.217-.774.261-.774.261l3.629 14.553.898-.237c.584-.127 1.341-.474 2.275-.844 1.871-.789 4.283-2.321 6.106-4.229 1.878-1.889 3.228-4.133 4.022-5.911.425-.877.675-1.659.857-2.202.182-.542.271-.859.271-.859l-14.452-4.006z"/><path d="m310.705 186.452-.76-1.293-.31.172c-.188.099-.424.259-.698.35l-1.062.429.479 1.421 1.2-.483c.307-.105.58-.285.795-.398l.356-.198zM314.196 183.43l-1.168-.94-.766.856c-.408.4-.84.775-.84.775l.963 1.149s.49-.424.951-.876l.86-.964zM316.433 179.422l-1.41-.51c.078.032-.938 2.103-.98 2.079l1.293.76c.05.026 1.183-2.293 1.097-2.329z"/><path fill="none" d="M305.419 180.012c.01.052-1.248.331-2.434-.07-.579-.214-1.133-.524-1.5-.843-.348-.339-.6-.56-.581-.578l-11.444 9.693s.192.27.612.684c.42.41.978 1.042 1.761 1.681 1.535 1.317 3.883 2.752 6.473 3.613 2.586.903 5.367 1.036 7.396.92 1.014-.11 1.865-.2 2.442-.326l.903-.221-3.628-14.553z"/><path d="m297.466 186.114.828-1.25s-.121-.074-.287-.21l-.621-.48c-.471-.328-.824-.79-.84-.772l-1.064 1.058.285.286c.168.177.4.401.666.588l.705.544c.188.152.328.236.328.236zM301.724 187.917l.316-1.466-1.098-.307c-.28-.06-.529-.21-.73-.282l-.328-.139-.613 1.369.373.158c.228.083.513.247.83.319l1.25.348zM306.329 188.026l-.24-1.481-1.132.137-1.139-.01-.073 1.498 1.297.01c.645-.076 1.287-.154 1.287-.154z"/><path fill="none" d="m300.904 178.521-.136-.19c-.092-.116-.243-.267-.354-.519-.326-.414-.537-1.175-.773-1.967a9.105 9.105 0 0 0-.09-.651l-.059-.319-.002-.342c-.01-.224-.02-.439-.027-.645l-.011-.148.021-.039a.251.251 0 0 0 .02-.072c.01-.044-.015-.094-.009-.13a.201.201 0 0 0 .047-.075c.015-.044.006-.075.006-.075l-14.106-5.092-.315 1.028-.321 1.191c-.094.462-.147.99-.215 1.566l-.085.9-.034.474.006.382c.018.513.035 1.054.053 1.613.015.279.027.563.041.851l.123.89.291 1.813c.576 2.439 1.48 4.874 2.572 6.546.476.863.99 1.52 1.348 1.98l.566.72 11.443-9.69z"/><path d="m291.447 174.22 1.5-.023c-.071-.038.103-2.247.204-2.223l-1.46-.344c-.12-.02-.328 2.612-.244 2.59zM292.126 178.75l1.437-.435s-.166-.555-.308-1.117l-.178-1.152-1.486.196.196 1.268c.155.623.339 1.24.339 1.24zM294.132 182.875l1.219-.875-.219-.283-.396-.684-.396-.684-.14-.333-1.36.63.157.371c.113.213.281.49.442.77l.447.766.246.322z"/><path fill="none" d="M299.537 173.35c-.026-.013.062-.083.157-.291.093-.202.477-.542 1.029-.949.353-.16.634-.394 1.062-.521.197-.074.366-.168.558-.232l.578-.155.484-.148.418-.065.363-.062-2.475-14.793-.769.136-.88.163-1.162.32-1.369.399c-.486.164-1.008.389-1.54.603-1.062.389-2.2 1.05-3.31 1.696-2.225 1.444-4.313 3.431-5.531 5.386-.333.444-.575.919-.787 1.341l-.535 1.096c-.3.604-.4.985-.4.985l14.109 5.091z"/><path d="m299.412 163.883.513 1.41s.129-.068.342-.126l.777-.22.776-.222c.21-.065.36-.077.36-.077l-.317-1.466s-.159.014-.39.083l-.844.24-.844.241c-.229.063-.373.137-.373.137zM295.378 166.089l.928 1.179.285-.214c.176-.122.387-.316.638-.458l1.007-.563-.688-1.333-1.123.63c-.541.352-1.047.758-1.047.759zM292.421 169.646l1.344.668c-.084-.042 1.166-1.886 1.232-1.84l-1.121-.996c-.022-.02-.418.5-.795 1.037-.197.262-.384.531-.478.762l-.182.369z"/><path fill="none" d="M304.187 170.925s.507-.126 1.382-.16l.69-.059.812.018.869.006.929.099.931.087.92.173c.596.108 1.154.19 1.637.343l1.609.422 4.371-14.347-2.43-.647c-.719-.21-1.605-.365-2.552-.536l-1.458-.259-1.551-.162-1.553-.147-1.547-.029-1.445-.012-1.328.092c-1.633.088-2.764.326-2.764.326l2.478 14.792z"/><path d="m312.892 163.323-.297 1.47c.011-.054 2.346.568 2.347.568l.397-1.446c0 .002-2.434-.645-2.447-.592zM308.41 162.715l-.086 1.497 2.39.239.209-1.486zM303.886 162.842l.178 1.489 1.188-.091.815-.061.374.005-.023-1.5-.396-.005a147.1 147.1 0 0 1-.87.063c-.632.051-1.266.1-1.266.1z"/><path fill="none" d="m313.966 171.855 6.293 2.174c3.67 1.124 7.533 1.766 7.533 1.766l2.366-14.811s-2.741-.463-5.476-1.286l-6.346-2.19-4.37 14.347z"/><path d="m325.696 167.199-.349 1.459 2.484.504.268-1.474zM321.47 165.962l-.475 1.423s.594.216 1.195.407l1.22.336.406-1.444-1.185-.325c-.583-.186-1.161-.397-1.161-.397zM317.277 164.507l-.473 1.424 2.313.799.525-1.406z"/><path fill="none" d="m327.792 175.795 2.422.315c.726.112 1.574.16 2.483.214.909.054 1.884.132 2.837.113 1.936.04 3.803-.066 5.206-.146l2.281-.197-1.431-14.93-1.881.164c-1.102.058-2.572.145-3.981.111-.72.021-1.411-.046-2.066-.083-.655-.039-1.268-.065-1.78-.152l-1.724-.221-2.366 14.812z"/><path d="m334.417 168.386-.057 1.499.395.022.871.001 1.264.002-.018-1.5-1.228-.002-.845-.001c-.229-.011-.382-.021-.382-.021zM330.052 167.994l-.203 1.486 1.257.162c.627.098 1.261.119 1.261.119l.121-1.495s-.614-.019-1.221-.115l-1.215-.157z"/><path fill="none" d="M343.021 176.095s.93-.069 2.233-.239c1.34-.152 3.045-.384 4.736-.621l4.501-.63 2-.263-1.858-14.883-2.144.281-4.603.644a183.26 183.26 0 0 1-4.377.575c-1.184.155-1.922.206-1.922.206l1.434 14.93z"/><path d="m352.05 166.833.209 1.486 2.451-.332-.195-1.487zM347.645 167.453l.204 1.486 2.462-.344-.21-1.485zM343.259 168.01l.16 1.491 2.483-.3-.19-1.488z"/><path fill="none" d="M232.764 161.139h41.241v40.876h-41.241z"/><text font-family="'Helvetica'" font-size="36" transform="translate(235.764 187.023)">Z</text><path fill="none" d="M321.261 161.139h41.24v40.876h-41.24z"/></svg>