<?xml version="1.0" encoding="utf-8"?>
<!-- Generator: Adobe Illustrator 16.0.4, SVG Export Plug-In . SVG Version: 6.00 Build 0)  -->
<!DOCTYPE svg PUBLIC "-//W3C//DTD SVG 1.1//EN" "http://www.w3.org/Graphics/SVG/1.1/DTD/svg11.dtd">
<svg version="1.1" xmlns="http://www.w3.org/2000/svg" xmlns:xlink="http://www.w3.org/1999/xlink" x="0px" y="0px" width="576px"
	 height="432px" viewBox="0 0 576 432" enable-background="new 0 0 576 432" xml:space="preserve">
<g id="Layer_1">
	<g>
		<g>
			<g>
				<g>
					<g>
						<g>
							<path fill="none" d="M130.117,136.069c-0.398,0.189,2-1.012,4.608-1.683c0.637-0.213,1.305-0.306,1.917-0.45
								c0.307-0.067,0.604-0.132,0.886-0.194c0.284-0.035,0.553-0.068,0.801-0.099c0.991-0.134,1.651-0.223,1.651-0.223
								l-1.33-14.939c0,0-0.997,0.128-2.492,0.321c-0.373,0.051-0.778,0.106-1.206,0.165c-0.421,0.088-0.865,0.181-1.324,0.276
								c-0.915,0.206-1.903,0.375-2.86,0.675c-3.882,1.01-7.522,2.773-7.886,3.011L130.117,136.069z"/>
						</g>
						<path fill-rule="evenodd" clip-rule="evenodd" d="M135.783,125.91l0.272,1.475c0,0,0.148-0.031,0.37-0.077
							c0.225-0.029,0.524-0.068,0.824-0.107c0.599-0.079,1.198-0.157,1.198-0.157l-0.173-1.49c0,0-0.624,0.082-1.248,0.164
							c-0.312,0.041-0.624,0.082-0.858,0.113C135.937,125.878,135.783,125.91,135.783,125.91z"/>
						<path fill-rule="evenodd" clip-rule="evenodd" d="M131.402,126.987l0.443,1.433c0,0,2.32-0.685,2.333-0.635l-0.348-1.459
							C133.817,126.275,131.402,126.987,131.402,126.987z"/>
						<path fill-rule="evenodd" clip-rule="evenodd" d="M127.187,128.575l0.632,1.36c0,0,0.135-0.062,0.337-0.156
							c0.208-0.086,0.486-0.202,0.763-0.317c0.55-0.243,1.124-0.434,1.124-0.434l-0.519-1.407c0,0-0.597,0.2-1.176,0.455
							c-0.291,0.121-0.583,0.242-0.801,0.333C127.331,128.509,127.187,128.575,127.187,128.575z"/>
					</g>
				</g>
				<g>
					<g>
						<g>
							<path fill="none" d="M139.979,133.421c0,0,0.659-0.024,1.648-0.061c1.075-0.073,2.088-0.036,3.223,0.131
								c1.127,0.192,2.285,0.468,3.249,0.809c0.458,0.134,0.896,0.316,1.18,0.413c0.292,0.106,0.458,0.167,0.458,0.167l5.347-14.013
								c0,0-0.226-0.083-0.622-0.228c-0.407-0.142-0.937-0.358-1.679-0.587c-1.404-0.487-3.495-1.039-5.666-1.386
								c-2.171-0.342-4.515-0.392-5.94-0.296c-1.516,0.068-2.527,0.113-2.527,0.113L139.979,133.421z"/>
						</g>
						<path fill-rule="evenodd" clip-rule="evenodd" d="M149.267,126.258l-0.409,1.443c0,0,0.145,0.04,0.361,0.1
							c0.216,0.069,0.503,0.161,0.79,0.253c0.576,0.174,1.146,0.392,1.146,0.392l0.506-1.412c0,0-0.585-0.223-1.189-0.406
							c-0.3-0.096-0.6-0.192-0.825-0.264C149.418,126.301,149.267,126.258,149.267,126.258z"/>
						<path fill-rule="evenodd" clip-rule="evenodd" d="M144.81,125.396l-0.146,1.493c0,0,0.589,0.074,1.179,0.148
							c0.588,0.084,1.171,0.216,1.171,0.217l0.303-1.469c0,0-0.619-0.14-1.247-0.23C145.439,125.475,144.81,125.396,144.81,125.396z
							"/>
						<polygon fill-rule="evenodd" clip-rule="evenodd" points="140.295,125.378 140.385,126.875 142.796,126.782 142.812,125.283 
													"/>
					</g>
				</g>
				<g>
					<g>
						<g>
							<path fill="none" d="M149.737,134.879c0,0,0.721,0.287,1.803,0.716c1.094,0.441,2.751,1.138,4.593,1.792
								c1.825,0.671,3.947,1.234,5.586,1.523c1.646,0.307,2.794,0.365,2.794,0.365l1.232-14.948c0,0-0.525-0.017-1.347-0.174
								c-0.827-0.149-1.952-0.424-3.267-0.907c-1.309-0.463-2.738-1.056-3.967-1.555c-1.249-0.495-2.081-0.825-2.081-0.825
								L149.737,134.879z"/>
						</g>
						<path fill-rule="evenodd" clip-rule="evenodd" d="M161.834,130.728l-0.353,1.458c0,0,0.157,0.037,0.393,0.092
							c0.236,0.052,0.546,0.141,0.868,0.184c0.639,0.105,1.278,0.209,1.278,0.209l0.194-1.487c0,0-0.598-0.098-1.195-0.196
							c-0.301-0.039-0.594-0.124-0.816-0.172C161.982,130.763,161.834,130.728,161.834,130.728z"/>
						<path fill-rule="evenodd" clip-rule="evenodd" d="M157.662,129.394l-0.534,1.401c0,0,0.581,0.235,1.187,0.437
							c0.599,0.211,1.205,0.408,1.205,0.408l0.453-1.43c0,0-0.581-0.189-1.159-0.393
							C158.234,129.625,157.662,129.394,157.662,129.394z"/>
						<polygon fill-rule="evenodd" clip-rule="evenodd" points="153.548,127.75 152.997,129.145 155.291,130.07 155.854,128.68 
													"/>
					</g>
				</g>
				<g>
					<g>
						<g>
							<path fill="none" d="M164.513,139.275c0,0,1.132,0.128,2.844,0.093c0.869,0.018,1.793-0.102,2.829-0.174
								c1.05-0.153,2.175-0.284,3.299-0.579c2.257-0.512,4.395-1.37,5.754-2.021c0.723-0.326,1.25-0.6,1.621-0.79
								c0.374-0.192,0.587-0.301,0.587-0.301l-6.965-13.283c0,0-0.158,0.081-0.436,0.222c-0.279,0.146-0.68,0.353-1.102,0.538
								c-0.899,0.432-1.889,0.81-2.895,1.035c-0.491,0.146-1.036,0.183-1.532,0.274c-0.527,0.017-1.058,0.111-1.444,0.083
								c-0.798,0.02-1.329-0.045-1.329-0.045L164.513,139.275z"/>
						</g>
						<path fill-rule="evenodd" clip-rule="evenodd" d="M174.628,129.845l0.561,1.391c0,0,0.607-0.228,1.18-0.508
							c0.585-0.263,1.149-0.549,1.15-0.549l-0.67-1.342c0,0-0.547,0.278-1.103,0.527
							C175.196,129.633,174.628,129.845,174.628,129.845z"/>
						<path fill-rule="evenodd" clip-rule="evenodd" d="M170.468,131.038l0.253,1.479c0,0,0.644-0.091,1.274-0.259
							c0.316-0.077,0.633-0.153,0.87-0.21c0.232-0.074,0.387-0.124,0.387-0.124l-0.434-1.436c0,0-0.144,0.046-0.359,0.116
							c-0.22,0.053-0.514,0.124-0.807,0.194C171.068,130.955,170.468,131.038,170.468,131.038z"/>
						<path fill-rule="evenodd" clip-rule="evenodd" d="M166.157,131.338l-0.05,1.499c0,0,0.649,0.001,1.299,0.002
							c0.326,0.011,0.646-0.03,0.888-0.044c0.241-0.019,0.402-0.031,0.402-0.031l-0.121-1.495c0,0-0.151,0.012-0.378,0.029
							c-0.227,0.013-0.529,0.054-0.832,0.042C166.762,131.339,166.157,131.338,166.157,131.338z"/>
					</g>
				</g>
				<g>
					<g>
						<g>
							<path fill="none" d="M181.447,135.503c0,0,0.785-0.423,1.963-1.058c1.116-0.609,2.533-1.405,3.888-2.097
								c1.367-0.713,2.724-1.355,3.759-1.817c0.511-0.241,0.949-0.42,1.255-0.547c0.306-0.127,0.48-0.2,0.48-0.2l-5.772-13.843
								c0,0-0.211,0.088-0.581,0.243c-0.37,0.153-0.898,0.372-1.521,0.663c-1.254,0.56-2.919,1.35-4.516,2.183
								c-1.621,0.831-3.119,1.675-4.204,2.266c-1.029,0.555-1.715,0.925-1.715,0.925L181.447,135.503z"/>
						</g>
						<path fill-rule="evenodd" clip-rule="evenodd" d="M186.505,123.781l0.639,1.357c0,0,0.557-0.254,1.115-0.508
							c0.555-0.26,1.12-0.497,1.12-0.498l-0.595-1.377c0,0-0.576,0.242-1.142,0.507
							C187.073,123.522,186.505,123.781,186.505,123.781z"/>
						<path fill-rule="evenodd" clip-rule="evenodd" d="M182.504,125.792l0.706,1.323c0,0,0.545-0.284,1.089-0.568
							c0.543-0.29,1.094-0.557,1.094-0.558l-0.671-1.341c0,0-0.562,0.273-1.112,0.567
							C183.057,125.504,182.504,125.792,182.504,125.792z"/>
						<polygon fill-rule="evenodd" clip-rule="evenodd" points="178.606,127.917 179.318,129.237 181.502,128.042 180.78,126.728 
													"/>
					</g>
				</g>
				<g>
					<g>
						<g>
							<path fill="none" d="M192.792,129.784c0,0,2.778-1.183,5.728-2.125l0.365-0.125c0.001,0-0.002,0,0.003,0l0.165-0.039
								c0.299-0.062,0.594-0.124,0.879-0.183c0.593-0.111,1.16-0.192,1.641-0.253c0.965-0.118,1.584-0.139,1.584-0.139
								l-0.818-14.976c0,0-1.053,0.04-2.577,0.226c-0.763,0.095-1.645,0.223-2.592,0.4c-0.477,0.091-0.962,0.187-1.485,0.309
								l-0.438,0.104l-0.6,0.156l-0.821,0.275c-3.423,1.094-6.804,2.526-6.804,2.526L192.792,129.784z"/>
						</g>
						<path fill-rule="evenodd" clip-rule="evenodd" d="M199.213,119.286l0.242,1.48c0,0,0.595-0.099,1.193-0.171
							c0.598-0.075,1.197-0.127,1.197-0.127l-0.13-1.495c0,0-0.629,0.055-1.254,0.133
							C199.835,119.183,199.213,119.286,199.213,119.286z"/>
						<path fill-rule="evenodd" clip-rule="evenodd" d="M194.829,120.433l0.488,1.418c0,0,0.581-0.198,1.163-0.396
							c0.579-0.217,1.076-0.316,1.104-0.324l-0.337-1.461c0,0-0.157,0.037-0.392,0.093c-0.246,0.052-0.553,0.172-0.845,0.268
							C195.42,120.232,194.829,120.433,194.829,120.433z"/>
						<path fill-rule="evenodd" clip-rule="evenodd" d="M190.643,121.979l0.56,1.392c0,0,0.569-0.227,1.144-0.441
							c0.574-0.217,1.147-0.435,1.147-0.435l-0.519-1.408c0,0-0.584,0.221-1.168,0.442
							C191.223,121.749,190.643,121.979,190.643,121.979z"/>
					</g>
				</g>
				<g>
					<g>
						<g>
							<path fill="none" d="M203.156,126.92c0,0,0.636-0.048,1.514-0.027c0.875,0.015,1.989,0.12,2.799,0.351
								c0.839,0.219,1.329,0.495,1.532,0.663c0.044,0.049,0.093,0.083,0.141,0.109c0.026,0.041,0.052,0.07,0.077,0.091
								c0.059,0.035,0.07,0.075,0.07,0.075l11.483-9.648c0,0-0.227-0.307-0.699-0.777c-0.236-0.235-0.522-0.52-0.851-0.847
								c-0.346-0.296-0.743-0.625-1.184-0.973c-0.441-0.34-0.937-0.651-1.463-0.994c-0.526-0.312-1.089-0.613-1.673-0.901
								c-1.159-0.53-2.412-1.004-3.608-1.3c-2.422-0.646-4.667-0.805-6.293-0.842c-1.63-0.036-2.663,0.045-2.663,0.045
								L203.156,126.92z"/>
						</g>
						<path fill-rule="evenodd" clip-rule="evenodd" d="M212.622,120.709l-0.734,1.308c0,0,0.13,0.059,0.307,0.174
							c0.175,0.116,0.409,0.271,0.643,0.426c0.216,0.176,0.432,0.352,0.594,0.484c0.167,0.126,0.248,0.242,0.253,0.237l1.038-1.083
							c0,0-0.105-0.129-0.299-0.28c-0.19-0.155-0.445-0.361-0.699-0.568c-0.272-0.18-0.544-0.361-0.749-0.496
							C212.77,120.778,212.622,120.709,212.622,120.709z"/>
						<path fill-rule="evenodd" clip-rule="evenodd" d="M208.272,119.199L208,120.675c0,0,0.143,0.029,0.358,0.073
							c0.216,0.041,0.502,0.101,0.78,0.184c0.567,0.134,1.104,0.341,1.104,0.341l0.508-1.412c0,0-0.604-0.231-1.229-0.38
							c-0.309-0.09-0.622-0.157-0.857-0.202C208.429,119.231,208.272,119.199,208.272,119.199z"/>
						<path fill-rule="evenodd" clip-rule="evenodd" d="M203.749,118.865l0.028,1.5c0,0,0.599-0.013,1.195,0.003
							c0.595,0.023,1.187,0.065,1.187,0.065l0.123-1.495c0,0-0.634-0.046-1.268-0.07
							C204.381,118.851,203.749,118.865,203.749,118.865z"/>
					</g>
				</g>
				<g>
					<g>
						<g>
							<path fill="none" d="M209.288,128.182c0,0,0.088,0.093,0.227,0.349c0.135,0.249,0.354,0.794,0.436,1.71
								c0.089,1.041,0.006,1.712-0.083,2.191c-0.103,0.462-0.236,0.691-0.223,0.702l13.816,5.837c0,0,0.125-0.324,0.345-0.891
								c0.238-0.567,0.452-1.389,0.7-2.383c0.451-1.968,0.61-4.659,0.368-6.95c-0.207-2.42-0.98-5.127-2.027-7.089
								c-0.512-0.975-1.028-1.777-1.427-2.303c-0.413-0.523-0.648-0.823-0.648-0.823L209.288,128.182z"/>
						</g>
						<path fill-rule="evenodd" clip-rule="evenodd" d="M217.939,132.762l-1.491-0.164c0,0-0.087,0.566-0.175,1.132
							c-0.145,0.551-0.289,1.102-0.289,1.102l1.427,0.461c0,0,0.165-0.627,0.33-1.254
							C217.855,133.403,217.939,132.762,217.939,132.762z"/>
						<path fill-rule="evenodd" clip-rule="evenodd" d="M217.765,128.174l-1.475,0.272c0,0,0.079,0.575,0.159,1.149
							c0.033,0.585,0.066,1.17,0.066,1.17l1.499-0.043c0,0-0.036-0.638-0.073-1.276
							C217.853,128.811,217.765,128.174,217.765,128.174z"/>
						<path fill-rule="evenodd" clip-rule="evenodd" d="M216.078,123.873l-1.248,0.833c0,0,0.073,0.119,0.183,0.296
							c0.114,0.174,0.261,0.411,0.37,0.672c0.262,0.496,0.435,1.038,0.435,1.038l1.413-0.503c0,0-0.199-0.619-0.504-1.2
							c-0.128-0.301-0.299-0.581-0.433-0.787C216.164,124.012,216.078,123.873,216.078,123.873z"/>
					</g>
				</g>
				<g>
					<g>
						<g>
							<path fill="none" d="M209.645,133.134c-0.004-0.003-0.008,0.076-0.079,0.171c-0.066,0.097-0.11,0.267-0.244,0.42
								c-0.216,0.335-0.587,0.752-1.136,1.109c-0.538,0.362-1.241,0.631-1.796,0.761c-0.277,0.071-0.514,0.11-0.684,0.121
								c-0.167,0.024-0.262,0.042-0.262,0.036l1.226,14.948c0,0,0.32-0.027,0.878-0.1c0.56-0.059,1.354-0.183,2.296-0.41
								c1.88-0.438,4.357-1.342,6.605-2.839c2.264-1.462,4.208-3.541,5.351-5.305c0.607-0.863,0.981-1.659,1.264-2.203
								c0.288-0.544,0.397-0.873,0.397-0.873L209.645,133.134z"/>
						</g>
						<path fill-rule="evenodd" clip-rule="evenodd" d="M209.616,143.014l-0.491-1.417c0,0-0.546,0.186-1.105,0.325
							c-0.282,0.062-0.563,0.123-0.775,0.169c-0.211,0.048-0.356,0.056-0.356,0.056l0.229,1.482c0,0,0.162-0.01,0.397-0.062
							c0.236-0.051,0.551-0.12,0.866-0.188C209.005,143.223,209.616,143.015,209.616,143.014z"/>
						<path fill-rule="evenodd" clip-rule="evenodd" d="M213.648,140.772l-0.95-1.16c0,0-0.112,0.088-0.279,0.221
							c-0.162,0.14-0.393,0.307-0.639,0.454c-0.47,0.327-0.985,0.581-0.985,0.581l0.698,1.328c0,0,0.58-0.287,1.113-0.656
							c0.278-0.167,0.54-0.357,0.725-0.515C213.521,140.873,213.648,140.772,213.648,140.772z"/>
						<path fill-rule="evenodd" clip-rule="evenodd" d="M216.581,137.214l-1.323-0.707c0,0-0.064,0.126-0.162,0.314
							c-0.102,0.186-0.272,0.414-0.425,0.651c-0.147,0.243-0.321,0.466-0.464,0.624c-0.136,0.163-0.227,0.272-0.227,0.272
							l1.133,0.983c0,0,0.104-0.125,0.261-0.312c0.163-0.182,0.362-0.438,0.533-0.715c0.177-0.273,0.37-0.536,0.487-0.75
							C216.506,137.358,216.581,137.214,216.581,137.214z"/>
					</g>
				</g>
				<g>
					<g>
						<g>
							<path fill="none" d="M205.443,135.752c0.001-0.019-0.389,0.044-0.953,0.002c-0.56-0.041-1.273-0.189-1.837-0.452
								c-0.572-0.256-0.985-0.598-1.248-0.902c-0.269-0.298-0.415-0.554-0.415-0.554l-12.783,7.846c0,0,0.677,1.214,2.085,2.781
								c1.385,1.578,3.635,3.365,6.125,4.471c2.479,1.145,5.093,1.642,7.028,1.772c0.97,0.056,1.777,0.069,2.339,0.029
								c0.562-0.028,0.884-0.045,0.884-0.045L205.443,135.752z"/>
						</g>
						<path fill-rule="evenodd" clip-rule="evenodd" d="M196.492,140.801l0.977-1.138c0,0-0.449-0.349-0.814-0.784
							c-0.406-0.397-0.722-0.871-0.722-0.87l-1.206,0.893c0,0,0.365,0.54,0.829,0.999
							C195.979,140.398,196.492,140.801,196.492,140.801z"/>
						<path fill-rule="evenodd" clip-rule="evenodd" d="M200.514,143.08l0.482-1.42c0,0-0.136-0.044-0.34-0.11
							c-0.196-0.084-0.458-0.197-0.721-0.31c-0.269-0.1-0.508-0.255-0.697-0.354c-0.187-0.103-0.312-0.171-0.312-0.171l-0.765,1.29
							c0,0,0.142,0.079,0.355,0.196c0.215,0.114,0.491,0.288,0.794,0.403c0.298,0.127,0.595,0.255,0.819,0.351
							C200.36,143.03,200.514,143.08,200.514,143.08z"/>
						<path fill-rule="evenodd" clip-rule="evenodd" d="M205.049,143.802l-0.013-1.5c0,0-0.144,0.006-0.36-0.007
							c-0.216-0.009-0.504-0.021-0.792-0.032c-0.571-0.073-1.141-0.146-1.141-0.146l-0.261,1.478c0,0,0.64,0.082,1.279,0.164
							c0.322,0.013,0.644,0.027,0.886,0.037C204.888,143.809,205.049,143.802,205.049,143.802z"/>
					</g>
				</g>
				<g>
					<g>
						<g>
							<path fill="none" d="M200.991,133.847c0,0-0.16-0.23-0.351-0.699c-0.172-0.484-0.389-1.238-0.457-2.202
								c-0.003-0.252-0.006-0.505-0.01-0.753c0.001-0.114-0.017-0.274-0.003-0.346c0.015-0.068,0.026-0.136,0.034-0.203
								c0.028-0.127-0.01-0.275,0.036-0.377c0.04-0.104,0.064-0.205,0.079-0.3c0.134-0.357,0.208-0.604,0.233-0.602l-13.342-6.852
								c0,0-0.18,0.293-0.412,0.872c-0.22,0.577-0.622,1.376-0.884,2.404c-0.136,0.513-0.273,1.072-0.406,1.665
								c-0.139,0.593-0.168,1.213-0.243,1.861c-0.027,0.323-0.055,0.652-0.083,0.984c-0.023,0.33-0.004,0.578-0.007,0.875
								c0.009,0.575,0.01,1.151,0.041,1.74c0.144,2.38,0.746,4.895,1.475,6.747c0.402,0.927,0.72,1.695,1.042,2.214
								c0.302,0.521,0.474,0.818,0.474,0.818L200.991,133.847z"/>
						</g>
						<path fill-rule="evenodd" clip-rule="evenodd" d="M192.285,128.14l1.482,0.232c-0.028-0.006,0.117-0.552,0.25-1.101
							c0.095-0.562,0.389-1.059,0.365-1.066l-1.391-0.562c0.024,0.008-0.302,0.584-0.419,1.229
							C192.414,127.503,192.257,128.135,192.285,128.14z"/>
						<path fill-rule="evenodd" clip-rule="evenodd" d="M192.306,132.732l1.485-0.208c0,0-0.062-0.581-0.125-1.162
							c-0.011-0.588-0.023-1.177-0.023-1.177l-1.5-0.002c0,0,0.013,0.638,0.026,1.275
							C192.238,132.095,192.306,132.732,192.306,132.732z"/>
						<path fill-rule="evenodd" clip-rule="evenodd" d="M193.625,137.126l1.342-0.671c0,0-0.23-0.523-0.461-1.046
							c-0.175-0.548-0.35-1.096-0.35-1.096l-1.446,0.4c0,0,0.197,0.614,0.394,1.229
							C193.364,136.534,193.625,137.126,193.625,137.126z"/>
					</g>
				</g>
				<g>
					<g>
						<g>
							<path fill="none" d="M200.552,128.365c0,0,0.043-0.057,0.106-0.164c0.031-0.054,0.066-0.121,0.101-0.201
								c0.046-0.079,0.139-0.162,0.209-0.261c0.255-0.399,0.864-0.966,1.669-1.535c0.771-0.585,1.861-1.074,2.658-1.446
								c0.86-0.328,1.444-0.55,1.444-0.55l-4.837-14.197c0,0-0.987,0.351-2.46,0.938c-1.479,0.667-3.454,1.566-5.391,2.958
								c-1.931,1.34-3.802,3.076-5,4.726c-0.303,0.403-0.586,0.758-0.812,1.109c-0.216,0.363-0.404,0.68-0.559,0.941
								c-0.299,0.528-0.47,0.831-0.47,0.831L200.552,128.365z"/>
						</g>
						<path fill-rule="evenodd" clip-rule="evenodd" d="M200.882,117.955l0.66,1.347c0,0,0.542-0.25,1.084-0.5
							c0.545-0.243,1.113-0.441,1.114-0.44l-0.532-1.403c0,0-0.597,0.208-1.175,0.466
							C201.457,117.69,200.882,117.955,200.882,117.955z"/>
						<path fill-rule="evenodd" clip-rule="evenodd" d="M197.024,120.385l0.944,1.166c0,0,0.43-0.393,0.935-0.703
							c0.244-0.165,0.488-0.33,0.67-0.453c0.18-0.128,0.311-0.198,0.311-0.198l-0.776-1.284c0,0-0.14,0.075-0.336,0.214
							c-0.198,0.134-0.462,0.312-0.727,0.49C197.502,119.954,197.024,120.385,197.024,120.385z"/>
						<path fill-rule="evenodd" clip-rule="evenodd" d="M193.939,123.778l1.268,0.801c-0.068-0.04,1.366-1.833,1.417-1.793
							l-1.087-1.033C195.486,121.703,193.869,123.727,193.939,123.778z"/>
					</g>
				</g>
				<g>
					<g>
						<g>
							<path fill="none" d="M206.739,124.208c0,0,0.619-0.187,1.546-0.468c0.958-0.247,2.266-0.557,3.64-0.746
								c2.736-0.421,5.6-0.419,5.6-0.419l-0.094-14.998c0,0-3.839-0.013-7.72,0.583c-1.938,0.271-3.892,0.72-5.358,1.106
								c-1.471,0.418-2.452,0.744-2.452,0.744L206.739,124.208z"/>
						</g>
						<path fill-rule="evenodd" clip-rule="evenodd" d="M213.972,114.683l0.115,1.496c0,0,0.606-0.042,1.214-0.07
							c0.607-0.029,1.215-0.056,1.215-0.056l-0.039-1.5c0,0-0.626,0.028-1.253,0.058
							C214.598,114.639,213.972,114.683,213.972,114.683z"/>
						<path fill-rule="evenodd" clip-rule="evenodd" d="M209.506,115.252l0.265,1.477c0,0,0.594-0.118,1.197-0.193
							c0.601-0.086,1.201-0.172,1.201-0.172l-0.179-1.489c0,0-0.622,0.089-1.243,0.177
							C210.123,115.13,209.506,115.252,209.506,115.252z"/>
						<path fill-rule="evenodd" clip-rule="evenodd" d="M205.133,116.302l0.44,1.434c0,0,0.144-0.044,0.359-0.111
							c0.215-0.069,0.502-0.158,0.797-0.225c0.586-0.146,1.172-0.292,1.172-0.292l-0.337-1.462c0,0-0.611,0.152-1.222,0.304
							c-0.307,0.069-0.608,0.162-0.834,0.234C205.284,116.255,205.133,116.302,205.133,116.302z"/>
					</g>
				</g>
				<g>
					<g>
						<g>
							<path fill="none" d="M217.526,122.575c0,0,0.71-0.031,1.778,0.026c0.534,0.015,1.157,0.038,1.821,0.103
								c0.667,0.041,1.374,0.114,2.076,0.211c2.833,0.33,5.483,1.09,5.483,1.09l4.025-14.449c0,0-0.238-0.063-0.653-0.175
								c-0.416-0.108-1.009-0.281-1.723-0.425c-1.427-0.324-3.332-0.691-5.242-0.92c-0.954-0.129-1.91-0.228-2.807-0.286
								c-0.896-0.083-1.734-0.117-2.454-0.138c-1.437-0.07-2.398-0.035-2.399-0.035L217.526,122.575z"/>
						</g>
						<path fill-rule="evenodd" clip-rule="evenodd" d="M227.424,115.457l-0.288,1.472c0,0,0.594,0.128,1.187,0.257
							c0.597,0.118,1.181,0.279,1.181,0.279l0.369-1.454c0,0-0.606-0.167-1.222-0.289
							C228.038,115.589,227.424,115.457,227.424,115.457z"/>
						<path fill-rule="evenodd" clip-rule="evenodd" d="M222.974,114.797l-0.152,1.492c0,0,0.604,0.075,1.208,0.149
							c0.302,0.037,0.604,0.074,0.83,0.102c0.225,0.037,0.375,0.062,0.375,0.062l0.227-1.483c0,0-0.155-0.025-0.387-0.063
							c-0.233-0.029-0.544-0.067-0.855-0.105C223.597,114.874,222.974,114.797,222.974,114.797z"/>
						<path fill-rule="evenodd" clip-rule="evenodd" d="M218.5,114.539l-0.021,1.5c0,0,0.608,0.021,1.217,0.042
							c0.608,0.019,1.216,0.055,1.216,0.055l0.094-1.497c0,0-0.625-0.038-1.252-0.057C219.126,114.561,218.5,114.539,218.5,114.539z
							"/>
					</g>
				</g>
				<g>
					<g>
						<g>
							<path fill="none" d="M228.685,124.005c0,0,0.167,0.044,0.458,0.121c0.282,0.091,0.684,0.221,1.167,0.376
								c0.968,0.308,2.182,0.809,3.333,1.346c1.105,0.577,2.155,1.18,2.803,1.691c0.7,0.486,1.045,0.846,1.045,0.846l10.022-11.158
								c0,0-0.216-0.191-0.593-0.526c-0.374-0.355-0.935-0.75-1.605-1.256c-1.34-1.021-3.187-2.106-5.055-3.056
								c-1.87-0.892-3.759-1.647-5.179-2.106c-0.711-0.228-1.303-0.417-1.718-0.549c-0.416-0.112-0.652-0.177-0.652-0.177
								L228.685,124.005z"/>
						</g>
						<path fill-rule="evenodd" clip-rule="evenodd" d="M240.031,120.263l-0.815,1.259c0,0,0.521,0.298,0.983,0.67
							c0.476,0.355,0.951,0.71,0.951,0.71l0.945-1.165c0,0-0.509-0.38-1.017-0.761C240.581,120.58,240.031,120.263,240.031,120.263z
							"/>
						<path fill-rule="evenodd" clip-rule="evenodd" d="M236.041,118.122l-0.609,1.371c0,0,0.548,0.249,1.096,0.498
							c0.529,0.282,1.058,0.564,1.058,0.564l0.719-1.316c0,0-0.558-0.297-1.116-0.594
							C236.615,118.383,236.041,118.122,236.041,118.122z"/>
						<path fill-rule="evenodd" clip-rule="evenodd" d="M231.825,116.554l-0.438,1.435c0,0,0.576,0.186,1.151,0.373
							c0.29,0.087,0.575,0.189,0.784,0.275c0.211,0.082,0.352,0.136,0.352,0.136l0.531-1.403c0,0-0.147-0.056-0.367-0.141
							c-0.219-0.09-0.515-0.195-0.816-0.287C232.423,116.747,231.825,116.554,231.825,116.554z"/>
					</g>
				</g>
				<g>
					<g>
						<g>
							<path fill="none" d="M237.489,128.384c0,0,0.419,0.338,0.875,0.871c0.062,0.064,0.128,0.131,0.195,0.201
								c0.042,0.056,0.053,0.092,0.085,0.138c0.046,0.091,0.15,0.159,0.189,0.26c0.038,0.101,0.094,0.194,0.162,0.286
								c0.022,0.114,0.061,0.221,0.118,0.323c0.143,0.447,0.165,1.031,0.113,1.515c-0.019,0.121-0.022,0.232-0.032,0.333
								c-0.027,0.103-0.051,0.192-0.07,0.266c-0.029,0.149-0.045,0.235-0.045,0.235l14.454,4.006c0,0,0.076-0.322,0.21-0.885
								c0.062-0.283,0.137-0.626,0.224-1.021c0.062-0.403,0.118-0.863,0.176-1.364c0.222-1.997,0.159-4.817-0.717-7.571
								c-0.238-0.679-0.494-1.355-0.761-2.011c-0.313-0.636-0.646-1.254-0.978-1.844c-0.333-0.588-0.737-1.094-1.094-1.595
								c-0.181-0.243-0.366-0.497-0.536-0.703c-0.162-0.179-0.318-0.352-0.468-0.517c-1.196-1.359-2.077-2.08-2.077-2.081
								L237.489,128.384z"/>
						</g>
						<path fill-rule="evenodd" clip-rule="evenodd" d="M247.282,131.38l-1.5,0.017c0,0-0.001,0.143-0.002,0.356
							c0.001,0.213,0.005,0.498-0.043,0.781c-0.034,0.284-0.067,0.568-0.092,0.781c-0.025,0.213-0.069,0.351-0.069,0.351
							l1.472,0.289c0,0,0.048-0.155,0.078-0.396c0.029-0.241,0.067-0.562,0.105-0.884c0.052-0.32,0.05-0.645,0.049-0.888
							C247.281,131.542,247.282,131.38,247.282,131.38z"/>
						<path fill-rule="evenodd" clip-rule="evenodd" d="M246.318,126.846l-1.368,0.616c0,0,0.198,0.526,0.396,1.053
							c0.134,0.547,0.268,1.095,0.268,1.095l1.474-0.278c0,0-0.139-0.637-0.311-1.264
							C246.548,127.456,246.318,126.846,246.318,126.846z"/>
						<path fill-rule="evenodd" clip-rule="evenodd" d="M243.62,123.115l-1.059,1.062c0,0,0.398,0.43,0.796,0.861
							c0.213,0.209,0.371,0.441,0.493,0.612c0.124,0.171,0.207,0.285,0.207,0.285l1.228-0.861c0,0-0.096-0.132-0.239-0.33
							c-0.143-0.199-0.331-0.467-0.557-0.691C244.055,123.584,243.62,123.115,243.62,123.115z"/>
					</g>
				</g>
				<g>
					<g>
						<g>
							<path fill="none" d="M239.08,132.812c0.007,0.001-0.027,0.085-0.083,0.234c-0.055,0.149-0.104,0.371-0.242,0.617
								c-0.22,0.503-0.614,1.175-1.111,1.656c-0.503,0.505-0.968,0.781-1.397,0.967c-0.462,0.217-0.774,0.261-0.774,0.261
								l3.628,14.553c0,0,0.327-0.086,0.899-0.237c0.584-0.127,1.341-0.474,2.275-0.844c1.871-0.789,4.283-2.321,6.107-4.229
								c1.878-1.889,3.227-4.133,4.022-5.911c0.425-0.877,0.675-1.659,0.857-2.202c0.183-0.542,0.271-0.859,0.271-0.859
								L239.08,132.812z"/>
						</g>
						<path fill-rule="evenodd" clip-rule="evenodd" d="M240.759,142.987l-0.76-1.293c0,0-0.124,0.069-0.31,0.172
							c-0.188,0.099-0.424,0.259-0.698,0.35c-0.531,0.214-1.062,0.429-1.062,0.429l0.48,1.421c0,0,0.6-0.242,1.2-0.483
							c0.307-0.105,0.581-0.285,0.796-0.398C240.618,143.066,240.759,142.987,240.759,142.987z"/>
						<path fill-rule="evenodd" clip-rule="evenodd" d="M244.25,139.965l-1.168-0.94c0,0-0.383,0.428-0.765,0.856
							c-0.409,0.4-0.841,0.775-0.841,0.775l0.964,1.149c0,0,0.49-0.424,0.95-0.876C243.819,140.447,244.25,139.965,244.25,139.965z"
							/>
						<path fill-rule="evenodd" clip-rule="evenodd" d="M246.487,135.957l-1.411-0.51c0.079,0.032-0.937,2.103-0.98,2.079
							l1.293,0.76C245.44,138.312,246.572,135.993,246.487,135.957z"/>
					</g>
				</g>
				<g>
					<g>
						<g>
							<path fill="none" d="M235.473,136.547c0.009,0.052-1.249,0.331-2.434-0.07c-0.579-0.214-1.133-0.524-1.5-0.843
								c-0.347-0.339-0.599-0.56-0.581-0.578l-11.445,9.693c0,0,0.193,0.27,0.613,0.684c0.42,0.41,0.977,1.042,1.761,1.681
								c1.535,1.317,3.882,2.752,6.472,3.613c2.587,0.903,5.368,1.036,7.397,0.92c1.013-0.11,1.865-0.2,2.442-0.326
								c0.575-0.14,0.903-0.221,0.903-0.221L235.473,136.547z"/>
						</g>
						<path fill-rule="evenodd" clip-rule="evenodd" d="M227.519,142.649l0.829-1.25c0,0-0.122-0.074-0.288-0.21
							c-0.169-0.131-0.396-0.305-0.621-0.48c-0.47-0.328-0.824-0.79-0.84-0.772l-1.064,1.058c0,0,0.114,0.114,0.286,0.286
							c0.167,0.177,0.4,0.401,0.666,0.588c0.256,0.198,0.513,0.396,0.705,0.544C227.38,142.565,227.519,142.649,227.519,142.649z"/>
						<path fill-rule="evenodd" clip-rule="evenodd" d="M231.777,144.452l0.317-1.466c0,0-0.549-0.153-1.098-0.307
							c-0.28-0.06-0.529-0.21-0.73-0.282c-0.197-0.083-0.328-0.139-0.328-0.139l-0.614,1.369c0,0,0.149,0.063,0.373,0.158
							c0.228,0.083,0.513,0.247,0.831,0.319C231.152,144.278,231.777,144.452,231.777,144.452z"/>
						<path fill-rule="evenodd" clip-rule="evenodd" d="M236.383,144.561l-0.24-1.481c0,0-0.566,0.068-1.132,0.137
							c-0.57-0.005-1.139-0.01-1.139-0.01l-0.073,1.498c0,0,0.648,0.005,1.296,0.01C235.74,144.638,236.383,144.561,236.383,144.561
							z"/>
					</g>
				</g>
				<g>
					<g>
						<g>
							<path fill="none" d="M230.958,135.056c0,0-0.05-0.069-0.136-0.19c-0.091-0.116-0.243-0.267-0.353-0.519
								c-0.326-0.414-0.537-1.175-0.773-1.967c-0.023-0.22-0.053-0.438-0.091-0.651l-0.058-0.319c0-0.115-0.001-0.229-0.002-0.342
								c-0.01-0.224-0.019-0.439-0.028-0.645l-0.01-0.148l0.02-0.039c0.011-0.025,0.017-0.048,0.02-0.072
								c0.01-0.044-0.015-0.094-0.009-0.13c0.027-0.028,0.04-0.053,0.047-0.075c0.014-0.044,0.006-0.075,0.006-0.075l-14.107-5.092
								c0,0-0.115,0.374-0.315,1.028c-0.089,0.331-0.198,0.731-0.322,1.191c-0.093,0.462-0.147,0.99-0.214,1.566
								c-0.027,0.289-0.056,0.589-0.085,0.9c-0.012,0.155-0.023,0.313-0.035,0.474c0.002,0.125,0.004,0.253,0.007,0.382
								c0.017,0.513,0.035,1.054,0.053,1.613c0.014,0.279,0.027,0.563,0.041,0.851c0.04,0.293,0.081,0.59,0.122,0.89
								c0.096,0.598,0.193,1.206,0.291,1.813c0.576,2.439,1.481,4.874,2.573,6.546c0.475,0.863,0.99,1.52,1.348,1.98
								c0.359,0.458,0.565,0.72,0.565,0.72L230.958,135.056z"/>
						</g>
						<path fill-rule="evenodd" clip-rule="evenodd" d="M221.501,130.755l1.5-0.023c-0.071-0.038,0.103-2.247,0.204-2.223
							l-1.46-0.344C221.625,128.145,221.417,130.777,221.501,130.755z"/>
						<path fill-rule="evenodd" clip-rule="evenodd" d="M222.18,135.285l1.436-0.435c0,0-0.166-0.555-0.308-1.117
							c-0.088-0.576-0.177-1.152-0.177-1.152l-1.487,0.196c0,0,0.099,0.634,0.197,1.268
							C221.996,134.668,222.18,135.285,222.18,135.285z"/>
						<path fill-rule="evenodd" clip-rule="evenodd" d="M224.186,139.409l1.218-0.875c0,0-0.087-0.113-0.219-0.283
							c-0.108-0.187-0.252-0.435-0.396-0.684s-0.288-0.497-0.396-0.684c-0.084-0.199-0.14-0.333-0.14-0.333l-1.361,0.63
							c0,0,0.063,0.148,0.158,0.371c0.113,0.213,0.281,0.49,0.442,0.77c0.163,0.278,0.326,0.557,0.448,0.766
							C224.087,139.28,224.186,139.409,224.186,139.409z"/>
					</g>
				</g>
				<g>
					<g>
						<g>
							<path fill="none" d="M229.591,129.885c-0.026-0.013,0.062-0.083,0.157-0.291c0.093-0.202,0.476-0.542,1.029-0.949
								c0.353-0.16,0.634-0.394,1.062-0.521c0.197-0.074,0.366-0.168,0.558-0.232c0.205-0.055,0.399-0.107,0.578-0.155
								c0.177-0.054,0.34-0.104,0.484-0.148c0.162-0.025,0.303-0.047,0.418-0.065c0.231-0.04,0.363-0.062,0.363-0.062l-2.474-14.793
								c0,0-0.279,0.049-0.769,0.136c-0.244,0.045-0.541,0.1-0.88,0.163c-0.346,0.095-0.736,0.203-1.162,0.32
								c-0.424,0.124-0.883,0.257-1.369,0.399c-0.487,0.164-1.008,0.389-1.54,0.603c-1.061,0.389-2.2,1.05-3.31,1.696
								c-2.224,1.444-4.313,3.431-5.531,5.386c-0.333,0.444-0.575,0.919-0.787,1.341c-0.207,0.423-0.387,0.792-0.535,1.096
								c-0.3,0.604-0.401,0.985-0.401,0.985L229.591,129.885z"/>
						</g>
						<path fill-rule="evenodd" clip-rule="evenodd" d="M229.466,120.418l0.512,1.41c0,0,0.129-0.068,0.342-0.126
							c0.212-0.06,0.495-0.14,0.777-0.22c0.283-0.081,0.565-0.162,0.777-0.222c0.21-0.065,0.36-0.077,0.36-0.077l-0.317-1.466
							c0,0-0.159,0.014-0.389,0.083c-0.23,0.065-0.537,0.152-0.844,0.24s-0.614,0.175-0.844,0.241
							C229.61,120.344,229.466,120.418,229.466,120.418z"/>
						<path fill-rule="evenodd" clip-rule="evenodd" d="M225.431,122.624l0.928,1.179c0,0,0.114-0.085,0.285-0.214
							c0.176-0.122,0.387-0.316,0.638-0.458c0.503-0.282,1.007-0.563,1.007-0.563l-0.687-1.333c0,0-0.562,0.315-1.124,0.63
							C225.938,122.217,225.431,122.623,225.431,122.624z"/>
						<path fill-rule="evenodd" clip-rule="evenodd" d="M222.475,126.18l1.343,0.668c-0.083-0.042,1.167-1.886,1.233-1.84
							l-1.122-0.996c-0.022-0.02-0.418,0.5-0.794,1.037c-0.197,0.262-0.384,0.531-0.478,0.762
							C222.548,126.032,222.475,126.18,222.475,126.18z"/>
					</g>
				</g>
				<g>
					<g>
						<g>
							<path fill="none" d="M234.24,127.46c0,0,0.507-0.126,1.382-0.16c0.214-0.018,0.446-0.038,0.691-0.059
								c0.258,0.006,0.53,0.012,0.812,0.018c0.282,0.002,0.573,0.004,0.869,0.006c0.307,0.033,0.618,0.065,0.929,0.099
								c0.312,0.029,0.624,0.059,0.931,0.087c0.313,0.059,0.621,0.117,0.919,0.173c0.596,0.108,1.154,0.19,1.637,0.343
								c0.965,0.253,1.609,0.422,1.609,0.422l4.372-14.347c0,0-0.972-0.259-2.43-0.647c-0.719-0.21-1.606-0.365-2.552-0.536
								c-0.473-0.084-0.961-0.171-1.458-0.259c-0.511-0.053-1.031-0.107-1.551-0.162c-0.521-0.049-1.041-0.099-1.553-0.147
								c-0.527-0.01-1.044-0.02-1.546-0.029c-0.501-0.004-0.987-0.008-1.446-0.012c-0.471,0.032-0.917,0.063-1.327,0.092
								c-1.634,0.088-2.764,0.326-2.764,0.326L234.24,127.46z"/>
						</g>
						<path fill-rule="evenodd" clip-rule="evenodd" d="M242.946,119.858l-0.297,1.47c0.01-0.054,2.345,0.568,2.346,0.568
							l0.398-1.446C245.393,120.451,242.959,119.804,242.946,119.858z"/>
						<polygon fill-rule="evenodd" clip-rule="evenodd" points="238.464,119.25 238.378,120.747 240.768,120.986 240.977,119.5 
													"/>
						<path fill-rule="evenodd" clip-rule="evenodd" d="M233.94,119.377l0.177,1.489c0,0,0.594-0.045,1.187-0.091
							c0.297-0.022,0.594-0.044,0.816-0.061c0.225,0.003,0.374,0.005,0.374,0.005l-0.023-1.5c0,0-0.158-0.002-0.396-0.005
							c-0.237,0.018-0.554,0.041-0.87,0.063C234.573,119.328,233.94,119.377,233.94,119.377z"/>
					</g>
				</g>
				<g>
					<g>
						<g>
							<path fill="none" d="M244.02,128.39c0,0,3.146,1.087,6.293,2.174c3.669,1.124,7.533,1.766,7.533,1.766l2.366-14.811
								c0,0-2.741-0.463-5.476-1.286c-3.172-1.095-6.345-2.19-6.345-2.19L244.02,128.39z"/>
						</g>
						<polygon fill-rule="evenodd" clip-rule="evenodd" points="255.75,123.734 255.401,125.193 257.885,125.697 258.153,124.222 
													"/>
						<path fill-rule="evenodd" clip-rule="evenodd" d="M251.523,122.497l-0.474,1.423c0,0,0.593,0.216,1.195,0.407
							c0.61,0.168,1.22,0.336,1.22,0.336l0.406-1.444c0,0-0.592-0.162-1.184-0.325C252.102,122.708,251.523,122.497,251.523,122.497
							z"/>
						<polygon fill-rule="evenodd" clip-rule="evenodd" points="247.331,121.042 246.858,122.466 249.171,123.265 249.695,121.859 
													"/>
					</g>
				</g>
				<g>
					<g>
						<g>
							<path fill="none" d="M257.846,132.33c0,0,0.968,0.126,2.421,0.315c0.726,0.112,1.575,0.16,2.484,0.214
								c0.909,0.054,1.884,0.132,2.837,0.113c1.935,0.04,3.803-0.066,5.206-0.146c1.369-0.118,2.281-0.197,2.281-0.197l-1.431-14.93
								c0,0-0.752,0.065-1.881,0.164c-1.101,0.058-2.571,0.145-3.981,0.111c-0.719,0.021-1.411-0.046-2.066-0.083
								c-0.655-0.039-1.268-0.065-1.781-0.152c-1.034-0.132-1.723-0.221-1.723-0.221L257.846,132.33z"/>
						</g>
						<path fill-rule="evenodd" clip-rule="evenodd" d="M268.875,124.885l0.069,1.499c0,0,0.629-0.032,1.259-0.063
							c0.63-0.026,1.253-0.099,1.253-0.099l-0.125-1.495c0,0-0.614,0.072-1.228,0.097
							C269.49,124.854,268.875,124.885,268.875,124.885z"/>
						<path fill-rule="evenodd" clip-rule="evenodd" d="M264.471,124.921l-0.057,1.499c0,0,0.158,0.009,0.395,0.022
							c0.237,0,0.553,0.001,0.87,0.001c0.632,0.001,1.264,0.002,1.264,0.002l-0.017-1.5c0,0-0.614-0.001-1.228-0.002
							c-0.307,0-0.614,0-0.844-0.001C264.624,124.93,264.471,124.921,264.471,124.921z"/>
						<path fill-rule="evenodd" clip-rule="evenodd" d="M260.105,124.529l-0.203,1.486c0,0,0.629,0.081,1.257,0.162
							c0.627,0.098,1.261,0.119,1.261,0.119l0.121-1.495c0,0-0.614-0.019-1.22-0.115
							C260.714,124.607,260.105,124.529,260.105,124.529z"/>
					</g>
				</g>
				<g>
					<g>
						<g>
							<path fill="none" d="M273.075,132.63c0,0,0.93-0.069,2.233-0.239c1.34-0.152,3.045-0.384,4.737-0.621
								c1.637-0.229,3.273-0.458,4.501-0.63c1.2-0.158,2-0.263,2-0.263l-1.859-14.883c0,0-0.857,0.112-2.143,0.281
								c-1.255,0.175-2.929,0.41-4.603,0.644c-1.619,0.227-3.225,0.445-4.377,0.575c-1.183,0.155-1.921,0.206-1.921,0.206
								L273.075,132.63z"/>
						</g>
						<polygon fill-rule="evenodd" clip-rule="evenodd" points="282.104,123.368 282.313,124.854 284.763,124.522 284.569,123.035 
													"/>
						<polygon fill-rule="evenodd" clip-rule="evenodd" points="277.698,123.988 277.902,125.474 280.364,125.13 280.154,123.645 
													"/>
						<polygon fill-rule="evenodd" clip-rule="evenodd" points="273.312,124.545 273.473,126.036 275.956,125.736 275.765,124.248 
													"/>
					</g>
				</g>
				<g>
					<g>
						<g>
							<path fill="none" d="M286.547,130.878c0,0,3.166-0.406,6.25-0.623c1.542-0.093,3.084-0.19,4.233-0.189
								c1.151-0.024,1.919-0.041,1.919-0.041v-14.998c0,0-0.903,0.018-2.259,0.044c-1.358,0.004-3.153,0.112-4.948,0.223
								c-3.586,0.253-7.054,0.702-7.054,0.702L286.547,130.878z"/>
						</g>
						<polygon fill-rule="evenodd" clip-rule="evenodd" points="295.46,122.066 295.517,123.565 297.972,123.515 297.956,122.015 
													"/>
						<path fill-rule="evenodd" clip-rule="evenodd" d="M290.994,122.339l0.123,1.495c0,0,0.612-0.065,1.226-0.093
							c0.613-0.036,1.227-0.072,1.227-0.072l-0.086-1.498c0,0-0.623,0.037-1.246,0.073
							C291.614,122.273,290.994,122.339,290.994,122.339z"/>
						<path fill-rule="evenodd" clip-rule="evenodd" d="M286.562,122.791l0.176,1.49c0,0,0.612-0.072,1.225-0.145
							c0.612-0.08,1.225-0.125,1.225-0.125l-0.148-1.493c0,0-0.622,0.046-1.24,0.126
							C287.18,122.718,286.562,122.791,286.562,122.791z"/>
					</g>
				</g>
			</g>
		</g>
	</g>
	<rect x="162.817" y="117.674" fill="none" width="41.241" height="40.876"/>
	<text transform="matrix(1 0 0 1 162.8174 143.5581)" font-family="'Helvetica'" font-size="36">Z</text>
	<rect x="251.314" y="117.674" fill="none" width="41.241" height="40.876"/>
	<text transform="matrix(1 0 0 1 251.314 143.5581)" font-family="'Helvetica'" font-size="36">P</text>
	<path fill="#FFFFFF" stroke="#000000" stroke-miterlimit="10" d="M46.125,226"/>
	<g>
		<polygon fill="#6699CC" points="301.39,131.871 301.729,127.287 318.552,123.25 		"/>
		<polygon fill="#9FC9EB" points="300.574,122.4 304.199,117.674 320.375,122.4 		"/>
		<polygon fill="#9FC9EB" points="299.993,123.247 295.993,128.663 320.375,122.812 		"/>
	</g>
</g>
<g id="Layer_2" display="none">
	<g display="inline">
		<g>
			<polygon fill="#6699CC" points="351.761,153.371 352.1,148.787 368.923,144.75 			"/>
			<polygon fill="#9FC9EB" points="350.945,143.9 354.57,139.174 370.746,143.9 			"/>
			<polygon fill="#9FC9EB" points="350.364,144.747 346.364,150.163 370.746,144.312 			"/>
		</g>
		<g>
			<g>
				<g>
					<g>
						<g>
							<path fill="#9FC9EB" d="M224.675,148.282l-0.603-1.672c0,0-0.256,0.077-0.629,0.229c-0.375,0.148-0.874,0.346-1.373,0.543
								c-0.494,0.221-0.989,0.421-1.358,0.609c-0.364,0.171-0.628,0.312-0.628,0.312l0.854,1.559c0,0,0.218-0.108,0.545-0.27
								c0.333-0.17,0.812-0.363,1.275-0.571c0.477-0.189,0.954-0.377,1.312-0.519C224.428,148.356,224.675,148.282,224.675,148.282z
								"/>
							<path fill="#9FC9EB" d="M230.574,146.565l-0.399-1.732c0,0-1.035,0.256-2.071,0.511c-1.024,0.3-2.048,0.601-2.048,0.601
								l0.531,1.696c0,0,0.99-0.291,1.981-0.581C229.571,146.813,230.574,146.565,230.574,146.565z"/>
							<path fill="#9FC9EB" d="M236.642,145.501l-0.221-1.764c0,0-1.054,0.148-2.108,0.297c-0.529,0.063-1.051,0.171-1.443,0.249
								c-0.392,0.076-0.654,0.127-0.654,0.127l0.339,1.745c0,0,0.254-0.05,0.635-0.124c0.38-0.075,0.887-0.18,1.401-0.241
								C235.617,145.646,236.642,145.501,236.642,145.501z"/>
							<path fill="#9FC9EB" d="M242.792,145.044l-0.054-1.776c0,0-1.063,0.015-2.125,0.074c-1.06,0.09-2.12,0.181-2.12,0.181
								l0.165,1.77c0,0,1.032-0.088,2.064-0.176C241.756,145.058,242.792,145.044,242.792,145.044z"/>
							<polygon fill="#9FC9EB" points="248.965,145.114 249.07,143.339 244.819,143.21 244.82,144.988 							"/>
							<path fill="#9FC9EB" d="M255.11,145.764l0.252-1.759c0,0-0.262-0.042-0.656-0.104c-0.393-0.069-0.918-0.145-1.448-0.183
								c-1.058-0.099-2.116-0.199-2.116-0.199l-0.154,1.771c0,0,1.033,0.097,2.065,0.194c0.518,0.037,1.031,0.11,1.415,0.179
								C254.854,145.723,255.11,145.764,255.11,145.764z"/>
							<path fill="#9FC9EB" d="M261.185,146.897l0.39-1.734c0,0-1.035-0.232-2.071-0.465c-0.515-0.129-1.041-0.203-1.435-0.265
								c-0.393-0.062-0.655-0.104-0.655-0.104l-0.299,1.752c0,0,0.256,0.04,0.641,0.101c0.384,0.061,0.899,0.132,1.403,0.259
								C260.172,146.669,261.185,146.897,261.185,146.897z"/>
						</g>
					</g>
					<g>
						<g>
							<path fill="#9FC9EB" d="M267.167,148.481l0.517-1.7c0,0-1.018-0.299-2.036-0.598c-0.509-0.149-1.018-0.299-1.399-0.411
								c-0.384-0.102-0.645-0.153-0.645-0.153l-0.434,1.724c0,0,0.255,0.05,0.631,0.149c0.374,0.11,0.873,0.256,1.371,0.403
								C266.169,148.188,267.167,148.481,267.167,148.481z"/>
							<polygon fill="#9FC9EB" points="273.15,150.319 273.663,148.617 269.674,147.368 269.119,149.057 							"/>
							<path fill="#9FC9EB" d="M279.221,152l0.431-1.724c0,0-1.015-0.234-2.017-0.528c-1.005-0.28-2.011-0.559-2.011-0.559
								l-0.488,1.709c0,0,1.019,0.283,2.038,0.566C278.188,151.761,279.221,152,279.221,152z"/>
							<path fill="#9FC9EB" d="M285.393,153.341l0.316-1.749c0,0-1.021-0.197-2.041-0.395c-0.512-0.092-1.02-0.201-1.399-0.299
								c-0.38-0.09-0.633-0.151-0.633-0.151l-0.397,1.732c0,0,0.258,0.062,0.644,0.153c0.385,0.099,0.903,0.21,1.426,0.304
								C284.351,153.139,285.393,153.341,285.393,153.341z"/>
							<path fill="#9FC9EB" d="M291.671,154.198l0.156-1.771c0,0-0.258-0.023-0.645-0.058c-0.386-0.043-0.903-0.061-1.416-0.147
								c-1.027-0.148-2.054-0.296-2.054-0.296l-0.269,1.757c0,0,1.053,0.151,2.106,0.303c0.524,0.088,1.061,0.107,1.457,0.152
								C291.405,154.174,291.671,154.198,291.671,154.198z"/>
							<path fill="#9FC9EB" d="M298.028,154.399l-0.055-1.776c0,0-0.258,0.007-0.645,0.018c-0.387,0.005-0.901,0.041-1.418,0.01
								c-1.032-0.034-2.064-0.068-2.064-0.068l-0.093,1.775c0,0,1.067,0.035,2.136,0.069c0.533,0.032,1.069-0.004,1.47-0.01
								C297.761,154.406,298.028,154.399,298.028,154.399z"/>
							<path fill="#9FC9EB" d="M304.369,153.797l-0.286-1.754c0,0-1.021,0.148-2.041,0.297c-1.026,0.092-2.054,0.184-2.054,0.184
								l0.131,1.772c0,0,1.066-0.096,2.133-0.191C303.311,153.951,304.369,153.797,304.369,153.797z"/>
						</g>
					</g>
					<g>
						<g>
							<path fill="#9FC9EB" d="M310.57,152.428l-0.468-1.715c0,0-0.251,0.069-0.626,0.171c-0.378,0.093-0.881,0.217-1.385,0.341
								c-1.003,0.267-2.02,0.448-2.02,0.448l0.354,1.742c0,0,1.054-0.188,2.082-0.461c0.517-0.127,1.034-0.255,1.422-0.35
								C310.313,152.498,310.57,152.428,310.57,152.428z"/>
							<path fill="#9FC9EB" d="M316.597,150.588l-0.552-1.689c0,0-0.994,0.338-1.991,0.641c-0.997,0.309-1.993,0.618-1.993,0.618
								l0.507,1.703c0,0,1.011-0.312,2.021-0.625C315.602,150.926,316.597,150.588,316.597,150.588z"/>
							<path fill="#9FC9EB" d="M322.539,148.691l-0.52-1.7c0,0-1.017,0.301-2.033,0.603c-0.997,0.332-1.993,0.664-1.993,0.664
								l0.56,1.687c0,0,0.997-0.332,1.993-0.664C321.543,148.986,322.539,148.691,322.539,148.691z"/>
							<path fill="#9FC9EB" d="M328.519,147.123l-0.383-1.736c0,0-1.037,0.225-2.074,0.451c-0.52,0.107-1.022,0.285-1.407,0.387
								c-0.383,0.111-0.638,0.185-0.638,0.185l0.475,1.713c0,0,0.249-0.073,0.622-0.182c0.376-0.1,0.867-0.274,1.375-0.379
								C327.504,147.342,328.519,147.123,328.519,147.123z"/>
							<path fill="#9FC9EB" d="M334.603,146.009l-0.251-1.759c0,0-1.049,0.161-2.098,0.323c-0.523,0.085-1.051,0.151-1.439,0.233
								c-0.39,0.084-0.648,0.141-0.648,0.141l0.338,1.745c0,0,0.254-0.055,0.635-0.138c0.381-0.081,0.897-0.144,1.41-0.228
								C333.575,146.167,334.603,146.009,334.603,146.009z"/>
							<path fill="#9FC9EB" d="M340.754,145.349l-0.118-1.773c0,0-0.265,0.015-0.662,0.037c-0.396,0.04-0.924,0.092-1.452,0.144
								c-1.056,0.105-2.111,0.21-2.111,0.21l0.207,1.765c0,0,1.033-0.103,2.067-0.206c0.517-0.052,1.033-0.103,1.421-0.142
								C340.494,145.363,340.754,145.349,340.754,145.349z"/>
							<path fill="#9FC9EB" d="M346.928,145.18l0.032-1.777c0,0-0.267-0.005-0.666-0.013c-0.398,0.004-0.93,0.011-1.461,0.017
								c-1.063-0.004-2.123,0.061-2.123,0.06l0.073,1.776c0,0,1.036-0.063,2.073-0.059c0.518-0.006,1.036-0.012,1.425-0.017
								C346.669,145.175,346.928,145.18,346.928,145.18z"/>
						</g>
					</g>
				</g>
			</g>
		</g>
	</g>
</g>
</svg>
